<svg width="100%" height="100%" viewBox="0 0 16 15" version="1.1" 
    xmlns="http://www.w3.org/2000/svg">
    <defs>
        <path d="M20,18.7053333 L16.4626667,18.7053333 L16.4626667,13.532 C16.4626667,12.1808889 15.9106667,11.2586667 14.6942222,11.2586667 C13.764,11.2586667 13.2471111,11.8808889 13.0057778,12.4831111 C12.9142222,12.6964444 12.9293333,12.9986667 12.9293333,13.2964444 L12.9293333,18.7053333 L9.42577778,18.7053333 C9.42577778,18.7053333 9.47244444,9.54755556 9.42577778,8.71511111 L12.9293333,8.71511111 L12.9293333,10.2817778 C13.1364444,9.59733333 14.2555556,8.61911111 16.0417778,8.61911111 C18.2582222,8.61911111 20,10.0555556 20,13.1497778 L20,18.7053333 L20,18.7053333 Z M5.88266667,7.46577778 L5.86,7.46577778 C4.732,7.46577778 4,6.70088889 4,5.73333333 C4,4.74844444 4.75288889,4 5.90533333,4 C7.05466667,4 7.76222222,4.74666667 7.78533333,5.73111111 C7.78533333,6.69911111 7.05466667,7.46577778 5.88266667,7.46577778 L5.88266667,7.46577778 Z M4.40222222,8.71511111 L7.52266667,8.71511111 L7.52266667,18.7053333 L4.40222222,18.7053333 L4.40222222,8.71511111 Z" id="path-1"></path>
    </defs>
    <g id="design" stroke="none" stroke-width="1" fill="none" fill-rule="evenodd">
        <g id="3-o-nas" transform="translate(-923.000000, -5848.000000)">
            <g id="section-5-copy" transform="translate(0.000000, 5699.000000)">
                <g id="mail" transform="translate(919.000000, 145.000000)">
                    <mask id="mask-2" fill="white">
                        <use xlink:href="#path-1"></use>
                    </mask>
                    <use id="Combined-Shape" fill="#8A8B8A" fill-rule="nonzero" xlink:href="#path-1"></use>
                    <g id="COLOR/-black" mask="url(#mask-2)" fill="#8A8B8A">
                        <rect id="Rectangle" x="0" y="0" width="24" height="24"></rect>
                    </g>
                </g>
            </g>
        </g>
    </g>
</svg>