<?xml version="1.0" encoding="UTF-8"?>
<svg width="100%" height="100%" viewBox="0 0 14 14" version="1.1" xmlns="http://www.w3.org/2000/svg" xmlns:xlink="http://www.w3.org/1999/xlink">
    <!-- Generator: sketchtool 51.2 (57519) - http://www.bohemiancoding.com/sketch -->
    <title>96324ACA-F3A4-4A6A-85D5-1B0F6810B830</title>
    <desc>Created with sketchtool.</desc>
    <defs>
        <path d="M18.8953204,17.0145662 C18.8974981,17.5510905 18.6733803,18.0636711 18.2780265,18.426381 C17.8826727,18.7890909 17.3527234,18.9683151 16.8069307,18.9188845 C14.7537011,18.6957843 12.7814296,17.9941767 11.0535312,16.8736086 C9.44019479,15.8484275 8.07236712,14.4805998 7.05019276,12.8719496 C5.92253086,11.1312386 5.22076391,9.14937554 5.0007711,7.07701118 C4.95263279,6.54431435 5.13060132,6.01591219 5.4912031,5.6208811 C5.85180488,5.22585001 6.36183346,5.00056689 6.89729883,5.00006291 L8.79650475,5.00009367 C9.75291458,4.99068056 10.5681041,5.69174353 10.7027594,6.64462622 C10.7769207,7.20692332 10.9144551,7.75902596 11.1122027,8.28896983 C11.3739505,8.98529525 11.2065371,9.77027797 10.6809688,10.3017469 L10.2255059,10.7572099 C10.9723535,11.9288428 11.9665491,12.9230379 13.1381823,13.669885 L13.5961617,13.2119137 C14.1251105,12.6888514 14.9100933,12.521438 15.6049857,12.7826492 C16.1363625,12.9809334 16.6884652,13.1184678 17.2564373,13.1934036 C18.2116063,13.3281546 18.9149212,14.1552675 18.8953256,15.1187863 L18.8953204,17.0145662 Z" id="path-1"></path>
    </defs>
    <g id="design" stroke="none" stroke-width="1" fill="none" fill-rule="evenodd">
        <g id="3-o-nas" transform="translate(-924.000000, -5912.000000)">
            <g id="section-5-copy" transform="translate(0.000000, 5699.000000)">
                <g id="phone" transform="translate(919.000000, 208.000000)">
                    <mask id="mask-2" fill="white">
                        <use xlink:href="#path-1"></use>
                    </mask>
                    <use id="Shape" fill="#000000" fill-rule="nonzero" xlink:href="#path-1"></use>
                    <g id="COLOR/-black" mask="url(#mask-2)" fill="#8A8B8A">
                        <rect id="Rectangle" x="0" y="0" width="24" height="24"></rect>
                    </g>
                </g>
            </g>
        </g>
    </g>
</svg>